<svg width="32" height="32" viewBox="0 0 32 32" fill="none" xmlns="http://www.w3.org/2000/svg">
<g clip-path="url(#clip0_9057_2737)">
<path d="M13.247 1.06033C14.9504 0.0768937 17.0491 0.076894 18.7524 1.06033L27.5616 6.14632C29.265 7.12976 30.3143 8.94723 30.3143 10.9141V21.0861C30.3143 23.053 29.265 24.8704 27.5616 25.8539L18.7524 30.9399C17.0491 31.9233 14.9504 31.9233 13.247 30.9399L4.43786 25.8539C2.73449 24.8704 1.68517 23.053 1.68517 21.0861V10.9141C1.68517 8.94723 2.73449 7.12976 4.43786 6.14632L13.247 1.06033Z" fill="url(#paint0_linear_9057_2737)"/>
<mask id="mask0_9057_2737" style="mask-type:alpha" maskUnits="userSpaceOnUse" x="1" y="0" width="30" height="32">
<path d="M13.247 1.06033C14.9504 0.0768937 17.0491 0.076894 18.7524 1.06033L27.5616 6.14632C29.265 7.12976 30.3143 8.94723 30.3143 10.9141V21.0861C30.3143 23.053 29.265 24.8704 27.5616 25.8539L18.7524 30.9399C17.0491 31.9233 14.9504 31.9233 13.247 30.9399L4.43786 25.8539C2.73449 24.8704 1.68517 23.053 1.68517 21.0861V10.9141C1.68517 8.94723 2.73449 7.12976 4.43786 6.14632L13.247 1.06033Z" fill="#83E1E1"/>
</mask>
<g mask="url(#mask0_9057_2737)">
<path d="M6.28563 12.4725L-3.16106 18.3614L-11.3451 23.8611C-11.6495 24.0656 -11.832 24.4083 -11.832 24.775V50.8603C-11.832 51.4684 -11.3391 51.9614 -10.731 51.9614H43.7379C44.346 51.9614 44.8389 51.4684 44.8389 50.8603V27.5607C44.8389 27.1835 44.6459 26.8326 44.3273 26.6307L16.7544 9.15606C16.319 8.88013 15.7505 8.94318 15.3861 9.30781L10.6363 14.0613C10.2062 14.4917 9.5086 14.4917 9.07854 14.0613L7.64699 12.6286C7.28481 12.2662 6.72046 12.2015 6.28563 12.4725Z" fill="url(#paint1_linear_9057_2737)"/>
<path d="M6.62637 15L1 19.5333H5.30769C5.72967 19.5333 7.30037 21.8444 8.03297 23L9 17.5778L6.62637 15Z" fill="url(#paint2_linear_9057_2737)"/>
<path d="M13.0193 17.0001L16 12.0001L28 19.0001L25.2516 20.2192L18.5 20.0001L12 26.0001L15 19.0001L13.0193 17.0001Z" fill="url(#paint3_linear_9057_2737)"/>
</g>
</g>
<defs>
<linearGradient id="paint0_linear_9057_2737" x1="15.9997" y1="-0.528931" x2="15.9997" y2="32.5291" gradientUnits="userSpaceOnUse">
<stop stop-color="#22AFFF"/>
<stop offset="1" stop-color="#1D41FF"/>
</linearGradient>
<linearGradient id="paint1_linear_9057_2737" x1="16.5035" y1="8.68396" x2="16.5035" y2="51.9614" gradientUnits="userSpaceOnUse">
<stop stop-color="#1B3573"/>
<stop offset="1" stop-color="#131E39"/>
</linearGradient>
<linearGradient id="paint2_linear_9057_2737" x1="8.5" y1="16" x2="-3" y2="33" gradientUnits="userSpaceOnUse">
<stop stop-color="#FCFCFD"/>
<stop offset="1" stop-color="white" stop-opacity="0"/>
</linearGradient>
<linearGradient id="paint3_linear_9057_2737" x1="16.5" y1="12.0001" x2="27" y2="50.0001" gradientUnits="userSpaceOnUse">
<stop stop-color="white"/>
<stop offset="1" stop-color="#192E5F"/>
</linearGradient>
<clipPath id="clip0_9057_2737">
<rect width="32" height="32" fill="white"/>
</clipPath>
</defs>
</svg>
